<svg xmlns="http://www.w3.org/2000/svg" viewBox="0 0 512 512">
  <defs>
    <linearGradient id="bg" x1="0%" y1="0%" x2="100%" y2="100%">
      <stop offset="0%" style="stop-color:#10B981"/>
      <stop offset="100%" style="stop-color:#059669"/>
    </linearGradient>
  </defs>
  <!-- Background -->
  <rect width="512" height="512" rx="96" fill="url(#bg)"/>
  <!-- Spade symbol -->
  <path d="M256 100c-12 0-24 8-36 24-48 64-100 120-100 176 0 56 40 96 88 96 24 0 44-12 48-28v36c0 8-16 16-40 16v24h80v-24c-24 0-40-8-40-16v-36c4 16 24 28 48 28 48 0 88-40 88-96 0-56-52-112-100-176-12-16-24-24-36-24z" fill="white"/>
</svg>

